<mxfile host="app.diagrams.net" modified="2022-06-24T01:16:01.864Z" agent="5.0 (Windows NT 10.0; WOW64) AppleWebKit/537.36 (KHTML, like Gecko) Chrome/86.0.4240.198 Safari/537.36" etag="I5Juks4XJ-QKc61eHNSa" version="20.0.2" type="github" pages="3">
  <diagram id="EbEibFO-C5BBDuHJUzT-" name="Page-1">
    <mxGraphModel dx="1237" dy="847" grid="0" gridSize="10" guides="1" tooltips="1" connect="1" arrows="1" fold="1" page="1" pageScale="1" pageWidth="827" pageHeight="1169" math="0" shadow="0">
      <root>
        <mxCell id="0" />
        <mxCell id="1" parent="0" />
        <mxCell id="Bi1ggKfM4Pbf4OTIna05-1" value="" style="edgeStyle=orthogonalEdgeStyle;rounded=0;orthogonalLoop=1;jettySize=auto;html=1;strokeWidth=2;" parent="1" source="Bi1ggKfM4Pbf4OTIna05-2" edge="1">
          <mxGeometry relative="1" as="geometry">
            <mxPoint x="371" y="399" as="targetPoint" />
          </mxGeometry>
        </mxCell>
        <mxCell id="Bi1ggKfM4Pbf4OTIna05-2" value="&lt;b&gt;回合开始&lt;/b&gt;" style="rounded=1;whiteSpace=wrap;html=1;strokeWidth=2;" parent="1" vertex="1">
          <mxGeometry x="332" y="314" width="77" height="39" as="geometry" />
        </mxCell>
        <mxCell id="Bi1ggKfM4Pbf4OTIna05-3" style="edgeStyle=orthogonalEdgeStyle;rounded=0;orthogonalLoop=1;jettySize=auto;html=1;strokeWidth=2;" parent="1" source="Bi1ggKfM4Pbf4OTIna05-4" target="Bi1ggKfM4Pbf4OTIna05-6" edge="1">
          <mxGeometry relative="1" as="geometry" />
        </mxCell>
        <mxCell id="Bi1ggKfM4Pbf4OTIna05-4" value="&lt;b&gt;初始化环境&lt;/b&gt;" style="rounded=0;whiteSpace=wrap;html=1;strokeWidth=2;" parent="1" vertex="1">
          <mxGeometry x="335.5" y="402" width="70" height="41" as="geometry" />
        </mxCell>
        <mxCell id="Bi1ggKfM4Pbf4OTIna05-5" value="" style="edgeStyle=orthogonalEdgeStyle;rounded=0;orthogonalLoop=1;jettySize=auto;html=1;" parent="1" source="Bi1ggKfM4Pbf4OTIna05-6" target="Bi1ggKfM4Pbf4OTIna05-16" edge="1">
          <mxGeometry relative="1" as="geometry" />
        </mxCell>
        <mxCell id="Bi1ggKfM4Pbf4OTIna05-6" value="&lt;b&gt;观察状态&lt;/b&gt;" style="rounded=0;whiteSpace=wrap;html=1;strokeWidth=2;" parent="1" vertex="1">
          <mxGeometry x="335.5" y="484" width="70" height="41" as="geometry" />
        </mxCell>
        <mxCell id="Bi1ggKfM4Pbf4OTIna05-7" style="edgeStyle=orthogonalEdgeStyle;rounded=0;orthogonalLoop=1;jettySize=auto;html=1;strokeWidth=2;" parent="1" source="Bi1ggKfM4Pbf4OTIna05-9" edge="1">
          <mxGeometry relative="1" as="geometry">
            <mxPoint x="721" y="518" as="targetPoint" />
          </mxGeometry>
        </mxCell>
        <mxCell id="Bi1ggKfM4Pbf4OTIna05-8" style="edgeStyle=orthogonalEdgeStyle;rounded=0;orthogonalLoop=1;jettySize=auto;html=1;entryX=0.5;entryY=1;entryDx=0;entryDy=0;strokeWidth=2;" parent="1" source="Bi1ggKfM4Pbf4OTIna05-9" target="Bi1ggKfM4Pbf4OTIna05-11" edge="1">
          <mxGeometry relative="1" as="geometry" />
        </mxCell>
        <mxCell id="Bi1ggKfM4Pbf4OTIna05-9" value="&lt;b&gt;是否选择随机动作&lt;/b&gt;" style="rhombus;whiteSpace=wrap;html=1;rounded=0;strokeWidth=2;" parent="1" vertex="1">
          <mxGeometry x="603" y="561" width="127" height="47.5" as="geometry" />
        </mxCell>
        <mxCell id="Bi1ggKfM4Pbf4OTIna05-10" style="edgeStyle=orthogonalEdgeStyle;rounded=0;orthogonalLoop=1;jettySize=auto;html=1;entryX=0.5;entryY=1;entryDx=0;entryDy=0;strokeWidth=2;" parent="1" source="Bi1ggKfM4Pbf4OTIna05-11" target="Bi1ggKfM4Pbf4OTIna05-21" edge="1">
          <mxGeometry relative="1" as="geometry">
            <Array as="points">
              <mxPoint x="618" y="452" />
              <mxPoint x="670" y="452" />
            </Array>
          </mxGeometry>
        </mxCell>
        <mxCell id="Bi1ggKfM4Pbf4OTIna05-11" value="&lt;b&gt;随机&lt;/b&gt;" style="rounded=0;whiteSpace=wrap;html=1;strokeWidth=2;" parent="1" vertex="1">
          <mxGeometry x="583" y="477" width="70" height="41" as="geometry" />
        </mxCell>
        <mxCell id="Bi1ggKfM4Pbf4OTIna05-12" style="edgeStyle=orthogonalEdgeStyle;rounded=0;orthogonalLoop=1;jettySize=auto;html=1;strokeWidth=2;" parent="1" source="Bi1ggKfM4Pbf4OTIna05-13" target="Bi1ggKfM4Pbf4OTIna05-21" edge="1">
          <mxGeometry relative="1" as="geometry" />
        </mxCell>
        <mxCell id="Bi1ggKfM4Pbf4OTIna05-13" value="遗憾最小化" style="rounded=0;whiteSpace=wrap;html=1;strokeWidth=2;fontStyle=1" parent="1" vertex="1">
          <mxGeometry x="684" y="477" width="70" height="41" as="geometry" />
        </mxCell>
        <mxCell id="Bi1ggKfM4Pbf4OTIna05-14" style="edgeStyle=orthogonalEdgeStyle;rounded=0;orthogonalLoop=1;jettySize=auto;html=1;entryX=1;entryY=0.5;entryDx=0;entryDy=0;strokeWidth=2;" parent="1" source="Bi1ggKfM4Pbf4OTIna05-16" target="Bi1ggKfM4Pbf4OTIna05-18" edge="1">
          <mxGeometry relative="1" as="geometry" />
        </mxCell>
        <mxCell id="Bi1ggKfM4Pbf4OTIna05-15" value="" style="edgeStyle=orthogonalEdgeStyle;rounded=0;orthogonalLoop=1;jettySize=auto;html=1;strokeWidth=2;" parent="1" source="Bi1ggKfM4Pbf4OTIna05-16" target="Bi1ggKfM4Pbf4OTIna05-9" edge="1">
          <mxGeometry relative="1" as="geometry" />
        </mxCell>
        <mxCell id="Bi1ggKfM4Pbf4OTIna05-16" value="&lt;b&gt;是否收到结束信号&lt;/b&gt;" style="rhombus;whiteSpace=wrap;html=1;rounded=0;strokeWidth=2;" parent="1" vertex="1">
          <mxGeometry x="307" y="561" width="127" height="47.5" as="geometry" />
        </mxCell>
        <mxCell id="Bi1ggKfM4Pbf4OTIna05-17" style="edgeStyle=orthogonalEdgeStyle;rounded=0;orthogonalLoop=1;jettySize=auto;html=1;entryX=0;entryY=0.5;entryDx=0;entryDy=0;strokeWidth=2;" parent="1" source="Bi1ggKfM4Pbf4OTIna05-18" target="Bi1ggKfM4Pbf4OTIna05-2" edge="1">
          <mxGeometry relative="1" as="geometry">
            <Array as="points">
              <mxPoint x="130" y="334" />
            </Array>
          </mxGeometry>
        </mxCell>
        <mxCell id="Bi1ggKfM4Pbf4OTIna05-18" value="&lt;b&gt;回合结束&amp;nbsp;&lt;/b&gt;" style="rounded=0;whiteSpace=wrap;html=1;strokeWidth=2;" parent="1" vertex="1">
          <mxGeometry x="103" y="564.25" width="70" height="41" as="geometry" />
        </mxCell>
        <mxCell id="Bi1ggKfM4Pbf4OTIna05-19" value="&lt;b&gt;是&lt;/b&gt;" style="text;html=1;strokeColor=none;fillColor=none;align=center;verticalAlign=middle;whiteSpace=wrap;rounded=0;" parent="1" vertex="1">
          <mxGeometry x="210" y="557" width="60" height="30" as="geometry" />
        </mxCell>
        <mxCell id="Bi1ggKfM4Pbf4OTIna05-20" value="" style="edgeStyle=orthogonalEdgeStyle;rounded=0;orthogonalLoop=1;jettySize=auto;html=1;strokeWidth=2;" parent="1" source="Bi1ggKfM4Pbf4OTIna05-21" target="Bi1ggKfM4Pbf4OTIna05-23" edge="1">
          <mxGeometry relative="1" as="geometry" />
        </mxCell>
        <mxCell id="Bi1ggKfM4Pbf4OTIna05-21" value="环境转移到下一个状态&amp;nbsp;" style="rounded=0;whiteSpace=wrap;html=1;strokeWidth=2;fontStyle=1" parent="1" vertex="1">
          <mxGeometry x="635" y="386" width="70" height="41" as="geometry" />
        </mxCell>
        <mxCell id="Bi1ggKfM4Pbf4OTIna05-22" value="" style="edgeStyle=orthogonalEdgeStyle;rounded=0;orthogonalLoop=1;jettySize=auto;html=1;" parent="1" source="Bi1ggKfM4Pbf4OTIna05-23" target="Bi1ggKfM4Pbf4OTIna05-25" edge="1">
          <mxGeometry relative="1" as="geometry" />
        </mxCell>
        <mxCell id="Bi1ggKfM4Pbf4OTIna05-23" value="得到奖励" style="rounded=0;whiteSpace=wrap;html=1;strokeWidth=2;fontStyle=1" parent="1" vertex="1">
          <mxGeometry x="624" y="312" width="92" height="41" as="geometry" />
        </mxCell>
        <mxCell id="Bi1ggKfM4Pbf4OTIna05-24" style="edgeStyle=orthogonalEdgeStyle;rounded=0;orthogonalLoop=1;jettySize=auto;html=1;entryX=1;entryY=0.5;entryDx=0;entryDy=0;strokeWidth=2;" parent="1" source="Bi1ggKfM4Pbf4OTIna05-25" target="Bi1ggKfM4Pbf4OTIna05-6" edge="1">
          <mxGeometry relative="1" as="geometry">
            <mxPoint x="411" y="504.5" as="targetPoint" />
          </mxGeometry>
        </mxCell>
        <mxCell id="Bi1ggKfM4Pbf4OTIna05-25" value="使用遗憾最小化策略更新Q表&amp;nbsp;" style="rounded=0;whiteSpace=wrap;html=1;strokeWidth=2;fontStyle=1" parent="1" vertex="1">
          <mxGeometry x="480" y="312" width="92" height="41" as="geometry" />
        </mxCell>
        <mxCell id="Bi1ggKfM4Pbf4OTIna05-26" value="&lt;b&gt;否&lt;/b&gt;" style="text;html=1;strokeColor=none;fillColor=none;align=center;verticalAlign=middle;whiteSpace=wrap;rounded=0;" parent="1" vertex="1">
          <mxGeometry x="466" y="557" width="60" height="30" as="geometry" />
        </mxCell>
        <mxCell id="Bi1ggKfM4Pbf4OTIna05-27" value="&lt;b&gt;是&lt;/b&gt;" style="text;html=1;strokeColor=none;fillColor=none;align=center;verticalAlign=middle;whiteSpace=wrap;rounded=0;" parent="1" vertex="1">
          <mxGeometry x="612" y="516" width="60" height="30" as="geometry" />
        </mxCell>
        <mxCell id="Bi1ggKfM4Pbf4OTIna05-28" value="&lt;b&gt;否&lt;/b&gt;" style="text;html=1;strokeColor=none;fillColor=none;align=center;verticalAlign=middle;whiteSpace=wrap;rounded=0;strokeWidth=2;" parent="1" vertex="1">
          <mxGeometry x="664" y="516" width="60" height="30" as="geometry" />
        </mxCell>
      </root>
    </mxGraphModel>
  </diagram>
  <diagram id="p9wuOLIHQDc3tzzxA4Dq" name="Page-2">
    <mxGraphModel dx="1443" dy="988" grid="0" gridSize="10" guides="1" tooltips="1" connect="1" arrows="1" fold="1" page="1" pageScale="1" pageWidth="827" pageHeight="1169" math="0" shadow="0">
      <root>
        <mxCell id="0" />
        <mxCell id="1" parent="0" />
        <mxCell id="-XUzzWzPFBp842z5V96Q-1" value="" style="edgeStyle=orthogonalEdgeStyle;rounded=0;orthogonalLoop=1;jettySize=auto;html=1;strokeWidth=2;" parent="1" source="-XUzzWzPFBp842z5V96Q-2" edge="1">
          <mxGeometry relative="1" as="geometry">
            <mxPoint x="371" y="399" as="targetPoint" />
          </mxGeometry>
        </mxCell>
        <mxCell id="-XUzzWzPFBp842z5V96Q-2" value="&lt;b&gt;回合开始&lt;/b&gt;" style="rounded=1;whiteSpace=wrap;html=1;strokeWidth=2;" parent="1" vertex="1">
          <mxGeometry x="332" y="314" width="77" height="39" as="geometry" />
        </mxCell>
        <mxCell id="-XUzzWzPFBp842z5V96Q-3" style="edgeStyle=orthogonalEdgeStyle;rounded=0;orthogonalLoop=1;jettySize=auto;html=1;strokeWidth=2;" parent="1" source="-XUzzWzPFBp842z5V96Q-4" target="-XUzzWzPFBp842z5V96Q-6" edge="1">
          <mxGeometry relative="1" as="geometry" />
        </mxCell>
        <mxCell id="-XUzzWzPFBp842z5V96Q-4" value="&lt;b&gt;初始化环境&lt;/b&gt;" style="rounded=0;whiteSpace=wrap;html=1;strokeWidth=2;" parent="1" vertex="1">
          <mxGeometry x="335.5" y="402" width="70" height="41" as="geometry" />
        </mxCell>
        <mxCell id="-XUzzWzPFBp842z5V96Q-5" value="" style="edgeStyle=orthogonalEdgeStyle;rounded=0;orthogonalLoop=1;jettySize=auto;html=1;" parent="1" source="-XUzzWzPFBp842z5V96Q-6" target="-XUzzWzPFBp842z5V96Q-16" edge="1">
          <mxGeometry relative="1" as="geometry" />
        </mxCell>
        <mxCell id="-XUzzWzPFBp842z5V96Q-6" value="&lt;b&gt;观察状态&lt;/b&gt;" style="rounded=0;whiteSpace=wrap;html=1;strokeWidth=2;" parent="1" vertex="1">
          <mxGeometry x="335.5" y="484" width="70" height="41" as="geometry" />
        </mxCell>
        <mxCell id="-XUzzWzPFBp842z5V96Q-7" style="edgeStyle=orthogonalEdgeStyle;rounded=0;orthogonalLoop=1;jettySize=auto;html=1;entryX=0.5;entryY=1;entryDx=0;entryDy=0;strokeWidth=2;" parent="1" source="-XUzzWzPFBp842z5V96Q-9" target="-XUzzWzPFBp842z5V96Q-11" edge="1">
          <mxGeometry relative="1" as="geometry" />
        </mxCell>
        <mxCell id="-XUzzWzPFBp842z5V96Q-8" style="edgeStyle=orthogonalEdgeStyle;rounded=0;orthogonalLoop=1;jettySize=auto;html=1;entryX=0.5;entryY=1;entryDx=0;entryDy=0;strokeWidth=2;" parent="1" source="-XUzzWzPFBp842z5V96Q-9" target="-XUzzWzPFBp842z5V96Q-13" edge="1">
          <mxGeometry relative="1" as="geometry" />
        </mxCell>
        <mxCell id="-XUzzWzPFBp842z5V96Q-9" value="&lt;b&gt;是否选择随机动作&lt;/b&gt;" style="rhombus;whiteSpace=wrap;html=1;rounded=0;strokeWidth=2;" parent="1" vertex="1">
          <mxGeometry x="748" y="561" width="127" height="47.5" as="geometry" />
        </mxCell>
        <mxCell id="-XUzzWzPFBp842z5V96Q-10" style="edgeStyle=orthogonalEdgeStyle;rounded=0;orthogonalLoop=1;jettySize=auto;html=1;entryX=0.5;entryY=1;entryDx=0;entryDy=0;strokeWidth=2;" parent="1" source="-XUzzWzPFBp842z5V96Q-11" target="-XUzzWzPFBp842z5V96Q-21" edge="1">
          <mxGeometry relative="1" as="geometry" />
        </mxCell>
        <mxCell id="-XUzzWzPFBp842z5V96Q-11" value="&lt;b&gt;随机&lt;/b&gt;" style="rounded=0;whiteSpace=wrap;html=1;strokeWidth=2;" parent="1" vertex="1">
          <mxGeometry x="726" y="477" width="70" height="41" as="geometry" />
        </mxCell>
        <mxCell id="-XUzzWzPFBp842z5V96Q-12" style="edgeStyle=orthogonalEdgeStyle;rounded=0;orthogonalLoop=1;jettySize=auto;html=1;entryX=0.5;entryY=1;entryDx=0;entryDy=0;strokeWidth=2;" parent="1" source="-XUzzWzPFBp842z5V96Q-13" target="-XUzzWzPFBp842z5V96Q-21" edge="1">
          <mxGeometry relative="1" as="geometry" />
        </mxCell>
        <mxCell id="-XUzzWzPFBp842z5V96Q-13" value="遗憾最小化" style="rounded=0;whiteSpace=wrap;html=1;strokeWidth=2;fontStyle=1;dashed=1;" parent="1" vertex="1">
          <mxGeometry x="827" y="477" width="70" height="41" as="geometry" />
        </mxCell>
        <mxCell id="-XUzzWzPFBp842z5V96Q-14" style="edgeStyle=orthogonalEdgeStyle;rounded=0;orthogonalLoop=1;jettySize=auto;html=1;entryX=1;entryY=0.5;entryDx=0;entryDy=0;strokeWidth=2;" parent="1" source="-XUzzWzPFBp842z5V96Q-16" target="-XUzzWzPFBp842z5V96Q-18" edge="1">
          <mxGeometry relative="1" as="geometry" />
        </mxCell>
        <mxCell id="-XUzzWzPFBp842z5V96Q-15" value="" style="edgeStyle=orthogonalEdgeStyle;rounded=0;orthogonalLoop=1;jettySize=auto;html=1;strokeWidth=2;" parent="1" source="-XUzzWzPFBp842z5V96Q-16" target="-XUzzWzPFBp842z5V96Q-9" edge="1">
          <mxGeometry relative="1" as="geometry" />
        </mxCell>
        <mxCell id="-XUzzWzPFBp842z5V96Q-16" value="&lt;b&gt;是否收到结束信号&lt;/b&gt;" style="rhombus;whiteSpace=wrap;html=1;rounded=0;strokeWidth=2;" parent="1" vertex="1">
          <mxGeometry x="307" y="561" width="127" height="47.5" as="geometry" />
        </mxCell>
        <mxCell id="-XUzzWzPFBp842z5V96Q-17" style="edgeStyle=orthogonalEdgeStyle;rounded=0;orthogonalLoop=1;jettySize=auto;html=1;entryX=0;entryY=0.5;entryDx=0;entryDy=0;strokeWidth=2;" parent="1" source="-XUzzWzPFBp842z5V96Q-18" target="-XUzzWzPFBp842z5V96Q-2" edge="1">
          <mxGeometry relative="1" as="geometry">
            <Array as="points">
              <mxPoint x="130" y="334" />
            </Array>
          </mxGeometry>
        </mxCell>
        <mxCell id="-XUzzWzPFBp842z5V96Q-18" value="&lt;b&gt;回合结束&amp;nbsp;&lt;/b&gt;" style="rounded=0;whiteSpace=wrap;html=1;strokeWidth=2;" parent="1" vertex="1">
          <mxGeometry x="103" y="564.25" width="70" height="41" as="geometry" />
        </mxCell>
        <mxCell id="-XUzzWzPFBp842z5V96Q-19" value="&lt;b&gt;是&lt;/b&gt;" style="text;html=1;strokeColor=none;fillColor=none;align=center;verticalAlign=middle;whiteSpace=wrap;rounded=0;" parent="1" vertex="1">
          <mxGeometry x="210" y="557" width="60" height="30" as="geometry" />
        </mxCell>
        <mxCell id="-XUzzWzPFBp842z5V96Q-20" value="" style="edgeStyle=orthogonalEdgeStyle;rounded=0;orthogonalLoop=1;jettySize=auto;html=1;strokeWidth=2;" parent="1" source="-XUzzWzPFBp842z5V96Q-21" target="-XUzzWzPFBp842z5V96Q-23" edge="1">
          <mxGeometry relative="1" as="geometry" />
        </mxCell>
        <mxCell id="-XUzzWzPFBp842z5V96Q-21" value="环境转移到下一个状态&amp;nbsp;" style="rounded=0;whiteSpace=wrap;html=1;strokeWidth=2;fontStyle=1" parent="1" vertex="1">
          <mxGeometry x="776.5" y="392" width="70" height="41" as="geometry" />
        </mxCell>
        <mxCell id="-XUzzWzPFBp842z5V96Q-22" value="" style="edgeStyle=orthogonalEdgeStyle;rounded=0;orthogonalLoop=1;jettySize=auto;html=1;" parent="1" source="-XUzzWzPFBp842z5V96Q-23" target="-XUzzWzPFBp842z5V96Q-25" edge="1">
          <mxGeometry relative="1" as="geometry" />
        </mxCell>
        <mxCell id="-XUzzWzPFBp842z5V96Q-23" value="得到奖励" style="rounded=0;whiteSpace=wrap;html=1;strokeWidth=2;fontStyle=1" parent="1" vertex="1">
          <mxGeometry x="765.5" y="312" width="92" height="41" as="geometry" />
        </mxCell>
        <mxCell id="-XUzzWzPFBp842z5V96Q-24" style="edgeStyle=orthogonalEdgeStyle;rounded=0;orthogonalLoop=1;jettySize=auto;html=1;entryX=1;entryY=0.5;entryDx=0;entryDy=0;strokeWidth=2;" parent="1" source="-XUzzWzPFBp842z5V96Q-25" target="-XUzzWzPFBp842z5V96Q-6" edge="1">
          <mxGeometry relative="1" as="geometry">
            <mxPoint x="411" y="504.5" as="targetPoint" />
          </mxGeometry>
        </mxCell>
        <mxCell id="-XUzzWzPFBp842z5V96Q-25" value="" style="rounded=0;whiteSpace=wrap;html=1;strokeWidth=2;fontStyle=1;dashed=1;" parent="1" vertex="1">
          <mxGeometry x="501" y="243" width="188" height="179" as="geometry" />
        </mxCell>
        <mxCell id="-XUzzWzPFBp842z5V96Q-26" value="&lt;b&gt;否&lt;/b&gt;" style="text;html=1;strokeColor=none;fillColor=none;align=center;verticalAlign=middle;whiteSpace=wrap;rounded=0;" parent="1" vertex="1">
          <mxGeometry x="466" y="557" width="60" height="30" as="geometry" />
        </mxCell>
        <mxCell id="-XUzzWzPFBp842z5V96Q-27" value="&lt;b&gt;是&lt;/b&gt;" style="text;html=1;strokeColor=none;fillColor=none;align=center;verticalAlign=middle;whiteSpace=wrap;rounded=0;" parent="1" vertex="1">
          <mxGeometry x="756" y="516" width="60" height="30" as="geometry" />
        </mxCell>
        <mxCell id="-XUzzWzPFBp842z5V96Q-28" value="&lt;b&gt;否&lt;/b&gt;" style="text;html=1;strokeColor=none;fillColor=none;align=center;verticalAlign=middle;whiteSpace=wrap;rounded=0;strokeWidth=2;" parent="1" vertex="1">
          <mxGeometry x="807" y="516" width="60" height="30" as="geometry" />
        </mxCell>
        <mxCell id="-XUzzWzPFBp842z5V96Q-29" value="&lt;span style=&quot;font-weight: 700;&quot;&gt;使用遗憾最小化策略更新Q表&amp;nbsp;&lt;/span&gt;" style="rounded=0;whiteSpace=wrap;html=1;strokeWidth=2;" parent="1" vertex="1">
          <mxGeometry x="514" y="270" width="166" height="22" as="geometry" />
        </mxCell>
        <mxCell id="-XUzzWzPFBp842z5V96Q-30" value="&lt;span style=&quot;font-weight: 700;&quot;&gt;使用遗憾最小化策略更新Q表&amp;nbsp;&lt;/span&gt;" style="rounded=0;whiteSpace=wrap;html=1;strokeWidth=2;" parent="1" vertex="1">
          <mxGeometry x="514" y="317" width="166" height="22" as="geometry" />
        </mxCell>
        <mxCell id="-XUzzWzPFBp842z5V96Q-31" value="&lt;span style=&quot;font-weight: 700;&quot;&gt;使用遗憾最小化策略更新Q表&amp;nbsp;&lt;/span&gt;" style="rounded=0;whiteSpace=wrap;html=1;strokeWidth=2;" parent="1" vertex="1">
          <mxGeometry x="514" y="380" width="166" height="22" as="geometry" />
        </mxCell>
      </root>
    </mxGraphModel>
  </diagram>
  <diagram id="SYrQ1GWipKdG86Qw5mBK" name="Page-3">
    <mxGraphModel dx="866" dy="593" grid="0" gridSize="10" guides="1" tooltips="1" connect="1" arrows="1" fold="1" page="1" pageScale="1" pageWidth="827" pageHeight="1169" math="0" shadow="0">
      <root>
        <mxCell id="0" />
        <mxCell id="1" parent="0" />
        <mxCell id="8chqCY4S-ap9Fa9wyQtx-1" value="" style="rounded=0;whiteSpace=wrap;html=1;strokeWidth=2;" vertex="1" parent="1">
          <mxGeometry x="279" y="160" width="154" height="31" as="geometry" />
        </mxCell>
        <mxCell id="8chqCY4S-ap9Fa9wyQtx-9" value="&lt;font style=&quot;font-size: 20px;&quot;&gt;old ebp&lt;/font&gt;" style="rounded=0;whiteSpace=wrap;html=1;strokeWidth=2;" vertex="1" parent="1">
          <mxGeometry x="279" y="191" width="154" height="31" as="geometry" />
        </mxCell>
        <mxCell id="8chqCY4S-ap9Fa9wyQtx-10" value="返回地址" style="text;html=1;strokeColor=none;fillColor=none;align=center;verticalAlign=middle;whiteSpace=wrap;rounded=0;fontSize=20;" vertex="1" parent="1">
          <mxGeometry x="307.5" y="160" width="97" height="30" as="geometry" />
        </mxCell>
        <mxCell id="8chqCY4S-ap9Fa9wyQtx-11" value="&lt;span style=&quot;font-size: 20px;&quot;&gt;s&lt;/span&gt;" style="rounded=0;whiteSpace=wrap;html=1;strokeWidth=2;" vertex="1" parent="1">
          <mxGeometry x="279" y="268" width="154" height="84" as="geometry" />
        </mxCell>
        <mxCell id="8chqCY4S-ap9Fa9wyQtx-12" value="" style="shape=curlyBracket;whiteSpace=wrap;html=1;rounded=1;fontSize=20;strokeWidth=2;size=0.5;" vertex="1" parent="1">
          <mxGeometry x="253" y="162.25" width="20" height="26.5" as="geometry" />
        </mxCell>
        <mxCell id="8chqCY4S-ap9Fa9wyQtx-14" value="" style="shape=curlyBracket;whiteSpace=wrap;html=1;rounded=1;fontSize=20;strokeWidth=2;size=0.5;" vertex="1" parent="1">
          <mxGeometry x="251" y="193.25" width="20" height="26.5" as="geometry" />
        </mxCell>
        <mxCell id="8chqCY4S-ap9Fa9wyQtx-15" value="4字节" style="text;html=1;strokeColor=none;fillColor=none;align=center;verticalAlign=middle;whiteSpace=wrap;rounded=0;fontSize=20;" vertex="1" parent="1">
          <mxGeometry x="187" y="161" width="60" height="30" as="geometry" />
        </mxCell>
        <mxCell id="8chqCY4S-ap9Fa9wyQtx-16" value="4字节" style="text;html=1;strokeColor=none;fillColor=none;align=center;verticalAlign=middle;whiteSpace=wrap;rounded=0;fontSize=20;" vertex="1" parent="1">
          <mxGeometry x="187" y="190" width="60" height="30" as="geometry" />
        </mxCell>
        <mxCell id="8chqCY4S-ap9Fa9wyQtx-17" value="" style="shape=curlyBracket;whiteSpace=wrap;html=1;rounded=1;fontSize=20;strokeWidth=2;size=0.5;" vertex="1" parent="1">
          <mxGeometry x="251" y="270" width="20" height="80" as="geometry" />
        </mxCell>
        <mxCell id="8chqCY4S-ap9Fa9wyQtx-18" value="24字节" style="text;html=1;strokeColor=none;fillColor=none;align=center;verticalAlign=middle;whiteSpace=wrap;rounded=0;fontSize=20;" vertex="1" parent="1">
          <mxGeometry x="180" y="295" width="73" height="30" as="geometry" />
        </mxCell>
        <mxCell id="8chqCY4S-ap9Fa9wyQtx-20" value="" style="rounded=0;whiteSpace=wrap;html=1;strokeWidth=2;" vertex="1" parent="1">
          <mxGeometry x="279" y="222" width="154" height="46" as="geometry" />
        </mxCell>
        <mxCell id="8chqCY4S-ap9Fa9wyQtx-21" value="" style="shape=curlyBracket;whiteSpace=wrap;html=1;rounded=1;fontSize=20;strokeWidth=2;size=0.47734222412109373;" vertex="1" parent="1">
          <mxGeometry x="251" y="223.13" width="20" height="43.75" as="geometry" />
        </mxCell>
        <mxCell id="8chqCY4S-ap9Fa9wyQtx-22" value="8字节" style="text;html=1;strokeColor=none;fillColor=none;align=center;verticalAlign=middle;whiteSpace=wrap;rounded=0;fontSize=20;" vertex="1" parent="1">
          <mxGeometry x="191" y="230" width="60" height="30" as="geometry" />
        </mxCell>
        <mxCell id="8chqCY4S-ap9Fa9wyQtx-24" value="" style="endArrow=classic;html=1;rounded=0;fontSize=20;" edge="1" parent="1">
          <mxGeometry width="50" height="50" relative="1" as="geometry">
            <mxPoint x="435" y="352" as="sourcePoint" />
            <mxPoint x="513" y="352" as="targetPoint" />
          </mxGeometry>
        </mxCell>
        <mxCell id="8chqCY4S-ap9Fa9wyQtx-25" value="-0x20" style="text;html=1;strokeColor=none;fillColor=none;align=center;verticalAlign=middle;whiteSpace=wrap;rounded=0;fontSize=20;" vertex="1" parent="1">
          <mxGeometry x="518" y="338" width="60" height="30" as="geometry" />
        </mxCell>
        <mxCell id="8chqCY4S-ap9Fa9wyQtx-26" value="" style="endArrow=classic;html=1;rounded=0;fontSize=20;" edge="1" parent="1">
          <mxGeometry width="50" height="50" relative="1" as="geometry">
            <mxPoint x="440" y="222" as="sourcePoint" />
            <mxPoint x="518" y="222" as="targetPoint" />
          </mxGeometry>
        </mxCell>
        <mxCell id="8chqCY4S-ap9Fa9wyQtx-27" value="0" style="text;html=1;strokeColor=none;fillColor=none;align=center;verticalAlign=middle;whiteSpace=wrap;rounded=0;fontSize=20;" vertex="1" parent="1">
          <mxGeometry x="518" y="204" width="60" height="30" as="geometry" />
        </mxCell>
        <mxCell id="8chqCY4S-ap9Fa9wyQtx-29" value="" style="endArrow=classic;html=1;rounded=0;fontSize=20;" edge="1" parent="1">
          <mxGeometry width="50" height="50" relative="1" as="geometry">
            <mxPoint x="440" y="191" as="sourcePoint" />
            <mxPoint x="518" y="191" as="targetPoint" />
          </mxGeometry>
        </mxCell>
        <mxCell id="8chqCY4S-ap9Fa9wyQtx-30" value="0x4" style="text;html=1;strokeColor=none;fillColor=none;align=center;verticalAlign=middle;whiteSpace=wrap;rounded=0;fontSize=20;" vertex="1" parent="1">
          <mxGeometry x="518" y="174" width="60" height="30" as="geometry" />
        </mxCell>
        <mxCell id="8chqCY4S-ap9Fa9wyQtx-31" value="" style="rounded=0;whiteSpace=wrap;html=1;strokeWidth=2;" vertex="1" parent="1">
          <mxGeometry x="604" y="160" width="154" height="31" as="geometry" />
        </mxCell>
        <mxCell id="8chqCY4S-ap9Fa9wyQtx-33" value="0x8048554" style="text;html=1;strokeColor=none;fillColor=none;align=center;verticalAlign=middle;whiteSpace=wrap;rounded=0;fontSize=20;" vertex="1" parent="1">
          <mxGeometry x="632.5" y="160" width="97" height="30" as="geometry" />
        </mxCell>
        <mxCell id="8chqCY4S-ap9Fa9wyQtx-34" value="&lt;span style=&quot;font-size: 20px;&quot;&gt;shellcode&lt;/span&gt;" style="rounded=0;whiteSpace=wrap;html=1;strokeWidth=2;" vertex="1" parent="1">
          <mxGeometry x="604" y="191" width="154" height="159" as="geometry" />
        </mxCell>
        <mxCell id="8chqCY4S-ap9Fa9wyQtx-36" value="sub esp, 40&lt;span style=&quot;color: rgba(0, 0, 0, 0); font-family: monospace; font-size: 0px; text-align: start;&quot;&gt;%3CmxGraphModel%3E%3Croot%3E%3CmxCell%20id%3D%220%22%2F%3E%3CmxCell%20id%3D%221%22%20parent%3D%220%22%2F%3E%3CmxCell%20id%3D%222%22%20value%3D%22%22%20style%3D%22rounded%3D0%3BwhiteSpace%3Dwrap%3Bhtml%3D1%3BstrokeWidth%3D2%3B%22%20vertex%3D%221%22%20parent%3D%221%22%3E%3CmxGeometry%20x%3D%22604%22%20y%3D%22160%22%20width%3D%22154%22%20height%3D%2231%22%20as%3D%22geometry%22%2F%3E%3C%2FmxCell%3E%3C%2Froot%3E%3C%2FmxGraphModel%3E&lt;/span&gt;&lt;span style=&quot;color: rgba(0, 0, 0, 0); font-family: monospace; font-size: 0px; text-align: start;&quot;&gt;%3CmxGraphModel%3E%3Croot%3E%3CmxCell%20id%3D%220%22%2F%3E%3CmxCell%20id%3D%221%22%20parent%3D%220%22%2F%3E%3CmxCell%20id%3D%222%22%20value%3D%22%22%20style%3D%22rounded%3D0%3BwhiteSpace%3Dwrap%3Bhtml%3D1%3BstrokeWidth%3D2%3B%22%20vertex%3D%221%22%20parent%3D%221%22%3E%3CmxGeometry%20x%3D%22604%22%20y%3D%22160%22%20width%3D%22154%22%20height%3D%2231%22%20as%3D%22geometry%22%2F%3E%3C%2FmxCell%3E%3C%2Froot%3E%3C%2FmxGraphModel%3E&lt;/span&gt;" style="rounded=0;whiteSpace=wrap;html=1;strokeWidth=2;" vertex="1" parent="1">
          <mxGeometry x="604" y="129" width="154" height="31" as="geometry" />
        </mxCell>
        <mxCell id="8chqCY4S-ap9Fa9wyQtx-37" value="call esp" style="rounded=0;whiteSpace=wrap;html=1;strokeWidth=2;" vertex="1" parent="1">
          <mxGeometry x="604" y="98" width="154" height="31" as="geometry" />
        </mxCell>
        <mxCell id="8chqCY4S-ap9Fa9wyQtx-38" value="" style="endArrow=classic;html=1;rounded=0;fontSize=20;" edge="1" parent="1">
          <mxGeometry width="50" height="50" relative="1" as="geometry">
            <mxPoint x="831" y="159" as="sourcePoint" />
            <mxPoint x="760" y="159" as="targetPoint" />
          </mxGeometry>
        </mxCell>
        <mxCell id="8chqCY4S-ap9Fa9wyQtx-40" value="esp(eip)" style="text;html=1;strokeColor=none;fillColor=none;align=center;verticalAlign=middle;whiteSpace=wrap;rounded=0;fontSize=20;" vertex="1" parent="1">
          <mxGeometry x="819" y="142" width="105" height="30" as="geometry" />
        </mxCell>
      </root>
    </mxGraphModel>
  </diagram>
</mxfile>
